<svg xmlns="http://www.w3.org/2000/svg" viewBox="0 0 115.51 115.51"><style><![CDATA[.A{fill:#3e3e3e}]]></style><path class="A" d="M58.13 95.73l-.7-.75c-14.5-15.6-22.34-26-25.42-33.72a28.31 28.31 0 0 1-1.52-4v-.1a28.17 28.17 0 0 1-1.16-8 28.91 28.91 0 0 1 57.81 0 28.62 28.62 0 0 1-1.19 8.1c0 .1 0 .16-.06.24-.12.4-.26.8-.4 1.22C80 73.82 59.7 94.15 58.86 95zm.06-73.5a26.93 26.93 0 0 0-26.9 26.9 26.56 26.56 0 0 0 1.09 7.52 27.7 27.7 0 0 0 1.45 3.82C36.8 67.9 44.3 77.9 58.18 92.9c3.72-3.83 20.67-21.7 25.38-34.84l.38-1.13a.9.9 0 0 1 0-.19 26.82 26.82 0 0 0-25.75-34.5zm0 44.05A17.58 17.58 0 1 1 75.78 48.7a17.6 17.6 0 0 1-17.59 17.58zm0-33.16A15.58 15.58 0 1 0 73.78 48.7a15.6 15.6 0 0 0-15.59-15.58z"/><rect class="A" x="57.32" y="35.43" width="1.69" height="14.27" rx=".85"/><rect class="A" x="61.5" y="44.24" width="1.69" height="9.45" rx=".85" transform="matrix(0 1 -1 0 111.010002 -13.49)"/><path class="A" d="M57.75 115.52a57.76 57.76 0 1 1 57.76-57.76 57.82 57.82 0 0 1-57.76 57.76zM57.75 2a55.76 55.76 0 1 0 55.76 55.76A55.82 55.82 0 0 0 57.75 2z"/></svg>