<svg xmlns="http://www.w3.org/2000/svg" viewBox="0 0 115.51 115.51"><style><![CDATA[.A{fill:#3e3e3e}]]></style><path class="A" d="M57.75 115.52a57.76 57.76 0 1 1 57.76-57.76 57.82 57.82 0 0 1-57.76 57.76zM57.75 2a55.76 55.76 0 1 0 55.76 55.76A55.82 55.82 0 0 0 57.75 2z"/><circle class="A" cx="57.54" cy="61.83" r="4.04"/><rect class="A" x="64.84" y="38.08" width="3.16" height="27.5" rx="1.58" transform="translate(49.44 -30.87) rotate(40.62)"/><path class="A" d="M83.63 67.37L78.13 65l.33-.82 5.6 2.17-.42 1.03zM79.46 51.3l-.4-1.58 5.75-1.7.52 2zm-43.62 0l-5.86-1.27q.23-1 .5-2l5.76 1.7a11.16 11.16 0 0 0-.4 1.54zm36.13-12.32l-1.3-1 3.5-4.88 1.64 1.27zm-28.63 0l-3.83-4.62 1.64-1.27 3.48 4.9a16.87 16.87 0 0 0-1.29.98zm15.14-5.1h-1.64l-.2-6q1 0 2.07 0zM31.7 67.37l-.43-1 5.6-2.15.33.8zM88.4 77.9H26.92l-.3-.44c-3.48-5.1-5.56-12.4-5.56-19.54a36.6 36.6 0 1 1 73.19 0c0 7.14-2.08 14.44-5.56 19.54zm-60.4-2h59.34a34.15 34.15 0 0 0 4.93-18 34.6 34.6 0 1 0-69.19 0 34.15 34.15 0 0 0 4.92 18zm51 19H34.4a2.75 2.75 0 0 1-2.7-2.75V85.8a2.75 2.75 0 0 1 2.75-2.75H79a2.75 2.75 0 0 1 2.75 2.75v6.34A2.75 2.75 0 0 1 79 94.9zM34.4 84.55a1.25 1.25 0 0 0-1.25 1.25v6.34a1.25 1.25 0 0 0 1.25 1.25h44.6a1.25 1.25 0 0 0 1.25-1.25V85.8A1.25 1.25 0 0 0 79 84.55z"/><path class="A" d="M43.7 83.9h2v10h-2zm12 0h2v10h-2zm12 0h2v10h-2z"/></svg>