<svg xmlns="http://www.w3.org/2000/svg" viewBox="0 0 115.51 115.51"><style><![CDATA[.A{fill:#3e3e3e}]]></style><path class="A" d="M57.78 115.5a57.76 57.76 0 1 1 57.76-57.75 57.82 57.82 0 0 1-57.76 57.75zm0-113.5a55.76 55.76 0 1 0 55.76 55.76A55.82 55.82 0 0 0 57.78 2zm-1 84.17l-1.1-.3a7.48 7.48 0 0 1-5.39-6.67v-.5H34.1a2.87 2.87 0 0 1-3.24-2.64 9 9 0 0 1 .61-5.47 11.13 11.13 0 0 1 1.52-2 .49.49 0 0 1 .13-.12c3.5-2.12 4.9-5.53 5.6-9.32.4-2.1.6-4.26 1-6.38a39 39 0 0 1 2.39-9.2 15.7 15.7 0 0 1 9.84-8.77l.6-.2s.06 0 .1-.1a5.44 5.44 0 0 1-.37-3.7 5.54 5.54 0 0 1 4.24-4.19l.37-.12h1.63a.88.88 0 0 0 .2.09 5.58 5.58 0 0 1 4.13 7.64c0 .1-.06.17-.1.3.7.25 1.4.47 2.08.75a16.08 16.08 0 0 1 9.65 11.54 75.64 75.64 0 0 1 1.87 10.46 25.28 25.28 0 0 0 1.69 6.34 8.94 8.94 0 0 0 2.94 3.83l.6.46a7.94 7.94 0 0 1 2.93 8.47 2.77 2.77 0 0 1-3 2.36H65.2a15.82 15.82 0 0 1-.33 1.91 7.35 7.35 0 0 1-6 5.44 2 2 0 0 0-.26.1zM33.15 76.05h49.1c.08-1.82-.23-3.9-1.9-5a12.27 12.27 0 0 1-4.57-5.4 29.72 29.72 0 0 1-2.34-8.52 76.23 76.23 0 0 0-1.85-10.31c-1.17-4.56-3.74-7.92-8.26-9.6a15.87 15.87 0 0 0-8-.76c-5.17.76-8.94 3.42-10.83 8.4a40.53 40.53 0 0 0-2.09 9.17 51.9 51.9 0 0 1-1.73 9 14.7 14.7 0 0 1-5.66 8.12 4.47 4.47 0 0 0-.85.7 3 3 0 0 0-.67 1.07c-.15.83-.22 2.24-.35 3.14zm20.9 2.7a3.68 3.68 0 1 0 7.36 0zm3.72-49.06a2.44 2.44 0 1 0 2.4 2.43 2.45 2.45 0 0 0-2.4-2.43z"/></svg>