<svg xmlns="http://www.w3.org/2000/svg" viewBox="0 0 115.51 115.51"><style><![CDATA[.A{fill:#3e3e3e}]]></style><path class="A" d="M57.76 115.52a57.76 57.76 0 1 1 57.76-57.76 57.83 57.83 0 0 1-57.76 57.76zM57.76 2a55.76 55.76 0 1 0 55.76 55.76A55.83 55.83 0 0 0 57.76 2zM73.6 35.97l2-1.56.44.5 8.47 10.92a2.5 2.5 0 0 1 .47 1.4q0 14.67 0 29.33a5.2 5.2 0 1 1-10.4 0V66.4a2.5 2.5 0 0 0-2.51-2.65v23.33h5.1v2.54H30.52v-2.5h5.18v-1.07q0-27.82 0-55.64a7.93 7.93 0 0 1 2.56-6.17 7.57 7.57 0 0 1 5.29-2H64.2a7.74 7.74 0 0 1 7.85 8.05q0 14.9 0 29.83v1l1.27.24a5.19 5.19 0 0 1 3.91 5.08v10.3a2.56 2.56 0 0 0 1.72 2.48 2.43 2.43 0 0 0 2.83-.81 3.16 3.16 0 0 0 .59-1.68v-21a1.27 1.27 0 0 0-.35-.82l-3.2-3.23a5.21 5.21 0 0 1-1.6-3.89q0-3.23 0-6.47a1.92 1.92 0 0 0-.36-1.05l-3.26-4.3zm-4.16 51.1v-.87q0-27.9 0-55.84a5.22 5.22 0 0 0-5.55-5.57h-20.07a5.22 5.22 0 0 0-5.54 5.51v56.77zM82.2 51.35l.17-.07v-3.8a.52.52 0 0 0-.06-.28l-2.45-3.15v4.36a2.08 2.08 0 0 0 .54 1.09l1.8 1.84zM41.7 33.23H66v19.43H41.7zm22.5 2H43.5v15.5h20.7zM46.1 40.3v-2.5h15.5v2.5z"/></svg>