<svg xmlns="http://www.w3.org/2000/svg" viewBox="0 0 115.51 115.51"><style><![CDATA[.A{fill:#3e3e3e}]]></style><path class="A" d="M57.76 115.5a57.76 57.76 0 1 1 57.76-57.75 57.82 57.82 0 0 1-57.76 57.75zm0-113.5a55.76 55.76 0 1 0 55.76 55.76A55.82 55.82 0 0 0 57.76 2zm18.16 48.5l8.7 4.94c1.25.73 2.45.93 3.2-.53s-.22-2.2-1.36-2.83l-3.12-1.77-4.63-2.68 7.72-4.44c1.58-.94 1.77-2.78.32-3.4a3.26 3.26 0 0 0-2.41.26l-7.6 4.25v-8c0-1.4-.45-2.48-1.93-2.48s-1.94 1.1-1.92 2.48V45a2.26 2.26 0 0 1-1.4 2.34L61.3 53.1c-.45.26-1 .45-1.6.76v-13.7a2.42 2.42 0 0 1 1.1-1.67l8-4.62c1.22-.7 2.42-1.48 1.44-3.08-.87-1.42-2.1-1-3.3-.27l-7.2 4.14V26.3c0-1.44 0-2.77-2-2.75a1.1 1.1 0 0 0-.63.08 3 3 0 0 0-1.21 2.05v8.87l-7.18-4.08c-1.25-.73-2.5-1.24-3.4.33s.27 2.28 1.43 2.94l8 4.6c.47.28 1.1.85 1.1 1.3l.05 14.13-1.57-.75-10-5.68a2.14 2.14 0 0 1-1.25-2.22v-8.87A3 3 0 0 0 42 34.11c-1.28-.82-2.64.24-2.67 2v8.32l-7-4c-2.26-1.3-3.5-1.33-4.06 0-.84 2 .9 2.58 2.17 3.3l6.93 4-7.7 4.4c-1.22.68-2.18 1.54-1.32 3s2.1 1 3.3.3l8.42-4.85a2.16 2.16 0 0 1 1.68-.26l12.2 6.92-12.52 7.08a2.14 2.14 0 0 1-1.67-.27l-8.7-4.94c-1.26-.73-2.46-.93-3.22.53s.23 2.2 1.36 2.83l3.12 1.77 4.63 2.68-7.72 4.44c-1.57.94-1.77 2.78-.32 3.4a3.25 3.25 0 0 0 2.41-.26l7.6-4.25v8c0 1.4.44 2.48 1.93 2.48s1.93-1.1 1.9-2.48v-8.7a2.27 2.27 0 0 1 1.4-2.34c3.42-1.87 6.8-3.84 10.18-5.76.46-.26 1-.45 1.6-.76l-.05 13.7a2.43 2.43 0 0 1-1.09 1.67c-2.63 1.6-5.33 3.1-8 4.62-1.22.7-2.42 1.48-1.44 3.08.87 1.42 2.1 1 3.3.27l7.3-4.15v8.37c0 1.44-.08 2.77 1.92 2.75a1.27 1.27 0 0 0 .68-.08 3 3 0 0 0 1.23-2c.14-2.84.06-5.7.06-8.87l7.2 4.08c1.25.73 2.5 1.24 3.4-.33s-.27-2.28-1.43-2.94l-8-4.6c-.47-.28-1.1-.85-1.1-1.3-.08-4.62 0-9.25 0-14.13.7.33 1.16.5 1.57.75l10 5.68a2.14 2.14 0 0 1 1.25 2.22c-.06 3-.1 5.92 0 8.87a3 3 0 0 0 1.1 2.15c1.28.82 2.63-.24 2.66-2v-8.32l7.06 4c2.26 1.3 3.5 1.33 4 0 .85-2.05-.9-2.57-2.16-3.3l-6.94-4 7.7-4.4c1.2-.68 2.18-1.54 1.3-3s-2.1-1-3.3-.3L75.65 64a2.19 2.19 0 0 1-1.69.26l-12.18-6.92 12.5-7.08a2.21 2.21 0 0 1 1.63.24z"/></svg>