<svg xmlns="http://www.w3.org/2000/svg" viewBox="0 0 115.51 115.51"><style><![CDATA[.A{fill:#3e3e3e}]]></style><path class="A" d="M57.75 115.52a57.76 57.76 0 1 1 57.76-57.76 57.82 57.82 0 0 1-57.76 57.76zM57.75 2a55.76 55.76 0 1 0 55.76 55.76A55.82 55.82 0 0 0 57.75 2zm28.07 64.9a.94.94 0 0 1-.51-.14 1 1 0 0 1-.35-1.37 15 15 0 0 0 0-15 1 1 0 0 1 1.73-1.14 17 17 0 0 1 0 17.13 1 1 0 0 1-.87.52zm4.14 3.74a1 1 0 0 1-.86-1.51c6.84-11.56.1-22.48 0-22.6a1 1 0 1 1 1.69-1.07c.3.5 7.47 12.08 0 24.68a1 1 0 0 1-.83.49zm4.04 4.5a.93.93 0 0 1-.5-.14 1 1 0 0 1-.36-1.37c9.55-16.15.12-31.42 0-31.58a1 1 0 1 1 1.69-1.07c.1.17 10.18 16.48 0 33.67a1 1 0 0 1-.83.49zM29.45 66.9a1 1 0 0 1-.85-.46 17 17 0 0 1 0-17.13 1 1 0 0 1 1.73 1c-4.56 7.7-.07 15 0 15a1 1 0 0 1-.31 1.38 1 1 0 0 1-.57.21zm-4.15 3.74a1 1 0 0 1-.85-.47c-.3-.48-7.46-12.08 0-24.68a1 1 0 0 1 1.72 1c-6.83 11.56-.1 22.48 0 22.6a1 1 0 0 1-.31 1.38.94.94 0 0 1-.56.18zm-4.05 4.5a1 1 0 0 1-.85-.46c-.1-.17-10.17-16.48 0-33.67a1 1 0 0 1 1.72 1c-9.55 16.15-.1 31.43 0 31.58a1 1 0 0 1-.31 1.38 1 1 0 0 1-.56.17z"/><circle class="A" cx="57.58" cy="59.62" r="2.65"/><rect class="A" x="64.62" y="53.81" width="2.07" height="18.03" rx="1.04" transform="translate(148.77 26.67) rotate(112.9)"/><path class="A" d="M74.24 58.63a1.52 1.52 0 0 1-1.06-.44 1.45 1.45 0 0 1-.19-.23 1.19 1.19 0 0 1-.13-.25 1.41 1.41 0 0 1-.12-.58 1.43 1.43 0 0 1 0-.29 1.31 1.31 0 0 1 .09-.28 1.26 1.26 0 0 1 .13-.26 2.11 2.11 0 0 1 .19-.23 1.3 1.3 0 0 1 .23-.18.94.94 0 0 1 .26-.14 1.31 1.31 0 0 1 .28-.09 1.42 1.42 0 0 1 .58 0 1.31 1.31 0 0 1 .28.09.94.94 0 0 1 .26.14 1 1 0 0 1 .23.18 1.52 1.52 0 0 1 .44 1.06 1.5 1.5 0 0 1-.44 1.06 1.52 1.52 0 0 1-1.03.44zM41 57.04a1.5 1.5 0 1 1 1.69-1.36 1.51 1.51 0 0 1-1.5 1.36H41zm29.85-7.23a1.49 1.49 0 0 1 .57-2 1.49 1.49 0 0 1 2 .57 1.51 1.51 0 0 1-.58 2 1.47 1.47 0 0 1-.73.19 1.48 1.48 0 0 1-1.26-.76zm-27.72-.85a1.5 1.5 0 0 1-.37-2.07 1.49 1.49 0 0 1 2.09-.37 1.48 1.48 0 0 1 .37 2.08 1.5 1.5 0 0 1-1.23.65 1.51 1.51 0 0 1-.86-.29zm22.48-4.6a1.502 1.502 0 0 1 1.57-2.56 1.5 1.5 0 0 1 .52 2.1 1.49 1.49 0 0 1-2.09.46zm-16.66-1.38a1.49 1.49 0 0 1 .69-2 1.48 1.48 0 0 1 2 .69 1.49 1.49 0 0 1-.68 2 1.43 1.43 0 0 1-.66.16 1.5 1.5 0 0 1-1.35-.85zm8-2.42a1.49 1.49 0 1 1 2.99.15 1.5 1.5 0 0 1-1.56 1.42 1.49 1.49 0 0 1-1.43-1.57zM42.44 65.3a1.41 1.41 0 0 1-.58-.12 1.51 1.51 0 0 1-.81-.81 1.41 1.41 0 0 1-.12-.57 1.48 1.48 0 0 1 .44-1.06 1.37 1.37 0 0 1 .23-.19l.26-.14a1 1 0 0 1 .28-.08 1.52 1.52 0 0 1 1.36.41 1.53 1.53 0 0 1 .43 1.06 1.55 1.55 0 0 1-.43 1.1 1.52 1.52 0 0 1-1.06.4zm15.14 16.33a24.41 24.41 0 1 1 24.41-24.41 24.44 24.44 0 0 1-24.41 24.41zm0-46.8a22.41 22.41 0 1 0 22.41 22.4 22.43 22.43 0 0 0-22.41-22.4z"/><path class="A" d="M76.7 71.9h-38a1 1 0 0 1 0-2h38a1 1 0 0 1 0 2z"/></svg>