<svg xmlns="http://www.w3.org/2000/svg" viewBox="0 0 115.51 115.51"><style><![CDATA[.A{fill:#3e3e3e}]]></style><path class="A" d="M57.78 115.5a57.76 57.76 0 1 1 57.76-57.75 57.82 57.82 0 0 1-57.76 57.75zm0-113.5a55.76 55.76 0 1 0 55.76 55.76A55.82 55.82 0 0 0 57.78 2zm-9 83.16h-1.74a23.94 23.94 0 0 1-3.26-.26 3.08 3.08 0 0 1-2.45-2.36l-.55-2.08-.2-.7h-4.16a6.93 6.93 0 0 1-6.73-5.07q-2.16-7.53-4.3-15.07a7.22 7.22 0 0 1 2.78-7.8l3.53-2.46c.17-.12.17-.13.1-.3a10.26 10.26 0 0 1-.49-1.87 3.56 3.56 0 0 1 .92-2.95l-1.1-1.56-1.38.88-.22-.26a2.57 2.57 0 0 1-.69-2 2.46 2.46 0 0 1 1.09-1.71l1.12-.8 1.67-1.2a.58.58 0 0 0 .17-.35 2 2 0 0 1 .93-1.86l3.37-2.35a2.06 2.06 0 0 1 2.07-.2.44.44 0 0 0 .32 0l2.1-1.44.63-.45a2.67 2.67 0 0 1 2-.52 2.7 2.7 0 0 1 1.7 1.29l.2.3-1.35 1 1 1.52 2.9-.7.1 1v-.76h2.9l.07.75.07-.74h2.87l.1.76.06-.78h2.9v.65l.06-.65h2.88l.08.77v-.76h3l.1.77.06-.78h2.87l.1.78.1-1 2.78.65 1-1.5-1.32-1 .17-.3a2.52 2.52 0 0 1 1.64-1.3 2.49 2.49 0 0 1 2 .41l2.82 2c.18.13.2.12.33 0a1.87 1.87 0 0 1 2.06.14l1.26.9 2.15 1.5a1.84 1.84 0 0 1 .87 1.86c0 .17 0 .23.2.37l2.78 1.94a2.55 2.55 0 0 1 1.1 1.71 2.61 2.61 0 0 1-.68 2l-.22.26-1.35-.92-1.1 1.56a3.53 3.53 0 0 1 .93 2.87 10 10 0 0 1-.41 1.63l-.07.24c-.08.24-.07.28.13.4l2.4 1.67 1.06.75a7.24 7.24 0 0 1 2.82 7.77q-2.16 7.7-4.37 15.37a7 7 0 0 1-6.46 4.85h-4.3l-.16.55-.53 1.8a3.64 3.64 0 0 1-3.92 3h-3.64L67 84.2l-.1.8H64v-.78l-.06.77H61l-.06-.76v.75h-2.9l-.05-.66v.66h-3l-.1-.76-.08.78H52l-.1-.78-.07.77h-2.88l-.08-.76zm-8.24-10.72l.54 1.94 1.66 5.8a1.84 1.84 0 0 0 1.62 1.41 18.31 18.31 0 0 0 2.35 0h.72l.08-.77h2.75l.07.75h.13l.07-.75h2.75l.06.74h.12l.06-.75h2.8l.06.75h.1l.06-.75h2.77l.08.74h.12l.07-.73h2.77l.07.74h.1l.06-.72h2.77l.06.73h.13l.07-.73h2.76l.07.75H71a2.09 2.09 0 0 0 2.2-1.67l1.4-4.87.58-2.07.17-.6-.77-.28.8-2.7.78.15v-.16l-.74-.28.78-2.7.77.15v-.15l-.74-.26.8-2.7.76.14v-.07c0-.06-.1-.12-.15-.18a1 1 0 0 1-.34-.76 10.78 10.78 0 0 1 .35-1.3l.15-.46.1-.32.74.13v-.15l-.7-.33.87-2.6.75.12v-.16l-.7-.3.78-2.65.72.14v-.18l-.55-.3.77-2.67.74.15 1.78-6.32a2.17 2.17 0 0 0-1-2.58l-2.77-2-9.5-6.64a6.28 6.28 0 0 0-1.16-.58l-.2-.08-.1.72h-2.73l-.07-.73h-.14l-.08.73H62.6l-.06-.75h-.1l-.06.76h-2.8l-.06-.74h-.12v.72h-2.84l-.07-.73h-.12l-.06.74h-2.8l-.06-.75h-.1l-.06.74h-2.75l-.08-.73h-.13l-.08.73h-2.72l-.1-.72-.2.08a6.62 6.62 0 0 0-1.13.57q-4.2 2.9-8.35 5.83l-3.98 2.83a2 2 0 0 0-1 2.27L34.14 52l.5 1.7.75-.12.74 2.66-.68.3v.16l.73-.14.78 2.7-.7.25v.17l.75-.14.75 2.68-.7.28v.15l.76-.15.75 2.7-.7.3v.16l.75-.18.8 2.7-.73.3v.15l.77-.17.77 2.7-.74.3v.16l.8-.15.77 2.7zm35.24 3.88h4.07a5.44 5.44 0 0 0 4.93-4.07l1.5-5.24q1.4-4.9 2.77-9.78a5.36 5.36 0 0 0-1.53-5.65 22 22 0 0 0-2.55-1.94l-1.42-.97-.77 2.73 2.35 1.64a3.18 3.18 0 0 1 1.35 3.58q-2.1 7.44-4.24 14.9a2.86 2.86 0 0 1-2.88 2.14h-2.7a.69.69 0 0 0-.19.1L75.82 78zm-43.5-27.65l-.8.54-2.46 1.73a5.75 5.75 0 0 0-2.25 6.31q2.14 7.57 4.3 15.13A5.46 5.46 0 0 0 36 78.3h4.14l-.1-.34-.66-2.27h-3a2.86 2.86 0 0 1-2.79-2.09q-2.13-7.48-4.25-15a3.19 3.19 0 0 1 1.28-3.54l.7-.48 1.57-1.1a.51.51 0 0 0 .09-.16l-.66-2.34zm43.8 23.9l-.17.65a1.17 1.17 0 0 1 .58-.33l-.38-.22zm-36.8.34a1.06 1.06 0 0 1 .7.34l-.1-.34h-.6zm37.63-.73h2.47a1.33 1.33 0 0 0 1.49-1.11Q83 65.6 85.12 58.13a1.45 1.45 0 0 0-.34-1.55c-.58-.5-1.22-.94-1.9-1.4l-.5-.35-.2.55-.7-.1v.07l.7.28-.8 2.76-.74-.12v.06l.68.3-.77 2.75-.8-.1v.06l.7.25-.8 2.8-.74-.15v.07l.7.27-.8 2.8-.75-.15v.06l.7.3-.78 2.8-.77-.18v.06l.74.3-.8 2.77-.8-.14v.06l.7.28zM33.48 54.82l-.37.26-1.64 1.14a1.66 1.66 0 0 0-.68 2l.5 1.85 1.07 3.75 2.58 9.1c.2.72.53 1.1 1 1.16a19.54 19.54 0 0 0 2.43 0h.6l-.14-.63.7-.3v-.06l-.8.15-.78-2.77.73-.3v-.06l-.77.18-.78-2.8.7-.3v-.06l-.76.16-.78-2.8.7-.3v-.07l-.75.15-.78-2.77.7-.3v-.05l-.76.15-.77-2.78.7-.3v-.06l-.74.15-.8-2.8.7-.28v-.07l-.7.1zm-1.14-13l1 1.5 11.42-8-.98-1.5zm38.72-6.5l11.42 8 1-1.5-11.38-8zM56.9 79.9a9.58 9.58 0 0 1-7.93-4c-.36-.46-.53-.56-.85-.5a1.16 1.16 0 0 1-1.42-1q-1.92-6.77-3.85-13.57L39.92 50.5c0-.17-.1-.3-.14-.43-.28-.87-.1-1 .85-1.7l2-1.4 3.9-2.7a2.73 2.73 0 0 0 1.11-1.33 7.2 7.2 0 0 1 13.32.3c.17.44.27.5.58.44a5.45 5.45 0 0 1 4.3 1.3l4.9 3.52c.34.23.93.64.74 1.36a7.36 7.36 0 0 1 4 3.68 7.29 7.29 0 0 1-4 9.9 2 2 0 0 0-.84.64l-3.72 5.27a1.32 1.32 0 0 0-.21.67 9.78 9.78 0 0 1-9.87 9.9zm0-18.37a8.5 8.5 0 0 0 .06 17 8.52 8.52 0 0 0 8.46-8.5 8.55 8.55 0 0 0-8.52-8.49zm-15.72-11.8L47 70.15a11 11 0 0 1 .18-2.1c0-.27.1-.55.17-.82a7.66 7.66 0 0 0 .24-1.59v-15.44a8.83 8.83 0 0 0-.31-2.33 12 12 0 0 1-.31-2 1.79 1.79 0 0 0 0-.23l-5.27 3.7-.5.35zm26.4 14.1l-.22.76-.8 2.87v.06l2.53-3.6zm-10.8-3.7h.8a9.61 9.61 0 0 1 8 5.2l.57-2a7.28 7.28 0 0 1-.65-13.14l-4.12-3A7.33 7.33 0 0 1 49 50.95v13a9.58 9.58 0 0 1 7.78-3.82zm12.15-9.3a5.82 5.82 0 0 0 0 11.64 5.82 5.82 0 0 0 0-11.64zm-14.7-10.77h-.13a5.83 5.83 0 0 0 .12 11.66 5.76 5.76 0 0 0 4.13-1.75 5.67 5.67 0 0 0 1.69-4.06 5.79 5.79 0 0 0-1.75-4.17 6 6 0 0 0-4.06-1.68zm7.18 5a1.18 1.18 0 0 0 .2.46l5.4 3.94a.88.88 0 0 0 .42 0l2.22-.08-1.5-1-3.6-2.58a4.22 4.22 0 0 0-3.15-.71zm-4.54 28.76a3.67 3.67 0 0 1-3.69-3.73 3.7 3.7 0 0 1 7.4.07 3.72 3.72 0 0 1-3.71 3.66zm0-6a2.25 2.25 0 0 0-2.25 2.21 2.35 2.35 0 0 0 .66 1.66 2.21 2.21 0 0 0 1.6.65 2.26 2.26 0 0 0 0-4.52zm-2.64-19.47a2.7 2.7 0 0 1-1.94-.81 2.65 2.65 0 0 1-.78-1.9 2.71 2.71 0 0 1 2.71-2.65 2.75 2.75 0 0 1 1.94.77 2.72 2.72 0 0 1 .77 1.93 2.65 2.65 0 0 1-2.69 2.66zm0-4a1.2 1.2 0 0 0-.83.36 1.27 1.27 0 0 0-.42.9 1.29 1.29 0 0 0 1.24 1.32 1.32 1.32 0 0 0 1.29-1.25 1.32 1.32 0 0 0-1.24-1.32zM68.96 59.3a2.73 2.73 0 0 1-1.94-.81 2.65 2.65 0 0 1-.78-1.9 2.73 2.73 0 0 1 2.71-2.66 2.79 2.79 0 0 1 1.94.78 2.68 2.68 0 0 1 .77 1.93 2.65 2.65 0 0 1-2.69 2.66zm0-4a1.22 1.22 0 0 0-.83.36 1.31 1.31 0 0 0-.42.9 1.29 1.29 0 0 0 1.24 1.32 1.23 1.23 0 0 0 .88-.36 1.26 1.26 0 0 0 .41-.9 1.31 1.31 0 0 0-1.24-1.3z"/></svg>