<svg xmlns="http://www.w3.org/2000/svg" viewBox="0 0 115.51 115.51"><style><![CDATA[.A{fill:#3e3e3e}]]></style><path class="A" d="M57.75 115.52a57.76 57.76 0 1 1 57.76-57.76 57.82 57.82 0 0 1-57.76 57.76zM57.75 2a55.76 55.76 0 1 0 55.76 55.76A55.82 55.82 0 0 0 57.75 2zm18.6 84.88H39.98a4.42 4.42 0 0 1-4.41-4.41v-49.4a4.41 4.41 0 0 1 4.41-4.44h36.37a4.41 4.41 0 0 1 4.41 4.41v49.44a4.42 4.42 0 0 1-4.41 4.41zM39.98 30.62a2.41 2.41 0 0 0-2.41 2.41v49.44a2.41 2.41 0 0 0 2.41 2.41h36.37a2.41 2.41 0 0 0 2.41-2.41v-49.4a2.41 2.41 0 0 0-2.41-2.44z"/><rect class="A" x="40.72" y="66.07" width="34.89" height="2.27" rx="1.14"/><rect class="A" x="40.72" y="60.28" width="15.15" height="2.27" rx="1.14"/><rect class="A" x="40.72" y="54.49" width="15.15" height="2.27" rx="1.14"/><rect class="A" x="40.72" y="71.39" width="34.89" height="2.27" rx="1.14"/><rect class="A" x="40.72" y="76.71" width="34.89" height="2.27" rx="1.14"/><path class="A" d="M68.8 50.82a5.54 5.54 0 0 0-1.56.36l1.3 5.44h-5a5 5 0 0 0 5.27 4.89 5.35 5.35 0 0 0 0-10.69zm-2.9.24a4.59 4.59 0 0 0-3.29 4.4.54.54 0 0 0 0 .16h4.43zm-25.18-12h2.24v3.72h-2.24z"/><rect class="A" x="40.72" y="44.41" width="19.42" height="1.47" rx=".74"/><path class="A" d="M44.74 37.8h2.24v5h-2.24zm4.02-2.82H51v7.82h-2.24zm4.02 4.1h2.24v3.72h-2.24zm3.84 1.5h2.24v2.22h-2.24z"/><rect class="A" x="63.5" y="44.41" width="9.16" height="1.47" rx=".74"/><rect class="A" x="63.5" y="40.89" width="9.16" height="1.47" rx=".74"/><rect class="A" x="63.5" y="37.41" width="9.16" height="1.47" rx=".74"/></svg>